<svg width="20" height="20" viewBox="0 0 20 20" fill="none" xmlns="http://www.w3.org/2000/svg">
<path d="M15.8974 2.03457V0.740741C15.8974 0.544284 15.8164 0.355874 15.6721 0.216958C15.5279 0.078042 15.3322 0 15.1282 0C14.9242 0 14.7285 0.078042 14.5843 0.216958C14.44 0.355874 14.359 0.544284 14.359 0.740741V1.97531H5.64103V0.740741C5.64103 0.544284 5.55998 0.355874 5.41572 0.216958C5.27146 0.078042 5.07581 0 4.8718 0C4.66778 0 4.47213 0.078042 4.32787 0.216958C4.18361 0.355874 4.10256 0.544284 4.10256 0.740741V2.03457C2.95931 2.21263 1.91902 2.77625 1.1675 3.62477C0.415977 4.4733 0.00217448 5.55145 0 6.66667V15.3086C0 15.9247 0.126013 16.5348 0.370843 17.1039C0.615674 17.6731 0.974528 18.1903 1.42692 18.6259C2.34055 19.5057 3.57971 20 4.8718 20H15.1282C15.768 20 16.4015 19.8787 16.9926 19.6429C17.5836 19.4071 18.1207 19.0616 18.5731 18.6259C19.0255 18.1903 19.3843 17.6731 19.6292 17.1039C19.874 16.5348 20 15.9247 20 15.3086V6.66667C19.9978 5.55145 19.584 4.4733 18.8325 3.62477C18.081 2.77625 17.0407 2.21263 15.8974 2.03457ZM18.4615 7.90123H1.53846V6.66667C1.53947 5.94578 1.79322 5.24634 2.25861 4.68167C2.72399 4.11701 3.37374 3.7202 4.10256 3.55556V4.69136C4.10256 4.88781 4.18361 5.07623 4.32787 5.21514C4.47213 5.35406 4.66778 5.4321 4.8718 5.4321C5.07581 5.4321 5.27146 5.35406 5.41572 5.21514C5.55998 5.07623 5.64103 4.88781 5.64103 4.69136V3.45679H14.359V4.69136C14.359 4.88781 14.44 5.07623 14.5843 5.21514C14.7285 5.35406 14.9242 5.4321 15.1282 5.4321C15.3322 5.4321 15.5279 5.35406 15.6721 5.21514C15.8164 5.07623 15.8974 4.88781 15.8974 4.69136V3.55556C16.6263 3.7202 17.276 4.11701 17.7414 4.68167C18.2068 5.24634 18.4605 5.94578 18.4615 6.66667V7.90123Z" fill="white"/>
</svg>
