<svg width="24" height="24" viewBox="0 0 24 24" fill="none" xmlns="http://www.w3.org/2000/svg">
<path d="M6.75 7.38462C6.75 8.8127 7.30312 10.1823 8.28769 11.1921C9.27226 12.2019 10.6076 12.7692 12 12.7692C13.3924 12.7692 14.7277 12.2019 15.7123 11.1921C16.6969 10.1823 17.25 8.8127 17.25 7.38462C17.25 5.95653 16.6969 4.58693 15.7123 3.57712C14.7277 2.56731 13.3924 2 12 2C10.6076 2 9.27226 2.56731 8.28769 3.57712C7.30312 4.58693 6.75 5.95653 6.75 7.38462ZM19.5 22H3.75C3.55109 22 3.36032 21.919 3.21967 21.7747C3.07902 21.6304 3 21.4348 3 21.2308V18.9231C3 17.903 3.39509 16.9247 4.09835 16.2034C4.80161 15.4821 5.75544 15.0769 6.75 15.0769H17.25C18.2446 15.0769 19.1984 15.4821 19.9016 16.2034C20.6049 16.9247 21 17.903 21 18.9231V21.2308C21 21.4348 20.921 21.6304 20.7803 21.7747C20.6397 21.919 20.4489 22 20.25 22H19.5Z" fill="#767676"/>
</svg>
