<svg width="24" height="24" viewBox="0 0 24 24" fill="none" xmlns="http://www.w3.org/2000/svg">
<path d="M21.5 11.5996V21.2C21.5 21.4122 21.4166 21.6156 21.2681 21.7657C21.1197 21.9157 20.9183 22 20.7083 22H15.1667C14.9567 22 14.7553 21.9157 14.6069 21.7657C14.4584 21.6156 14.375 21.4122 14.375 21.2V15.9998C14.375 15.8937 14.3333 15.7919 14.2591 15.7169C14.1848 15.6419 14.0841 15.5998 13.9792 15.5998H10.0208C9.91585 15.5998 9.81517 15.6419 9.74094 15.7169C9.6667 15.7919 9.625 15.8937 9.625 15.9998V21.2C9.625 21.4122 9.54159 21.6156 9.39313 21.7657C9.24466 21.9157 9.0433 22 8.83333 22H3.29167C3.0817 22 2.88034 21.9157 2.73187 21.7657C2.58341 21.6156 2.5 21.4122 2.5 21.2V11.5996C2.50019 11.1753 2.66714 10.7685 2.96411 10.4686L10.8808 2.46828C11.1777 2.16843 11.5803 2 12 2C12.4197 2 12.8223 2.16843 13.1192 2.46828L21.0359 10.4686C21.3329 10.7685 21.4998 11.1753 21.5 11.5996Z" fill="#767676"/>
</svg>
