<svg width="19" height="20" viewBox="0 0 19 20" fill="none" xmlns="http://www.w3.org/2000/svg">
<path d="M19 9.59961V19.2C19 19.4122 18.9166 19.6156 18.7681 19.7657C18.6197 19.9157 18.4183 20 18.2083 20H12.6667C12.4567 20 12.2553 19.9157 12.1069 19.7657C11.9584 19.6156 11.875 19.4122 11.875 19.2V13.9998C11.875 13.8937 11.8333 13.7919 11.7591 13.7169C11.6848 13.6419 11.5841 13.5998 11.4792 13.5998H7.52083C7.41585 13.5998 7.31517 13.6419 7.24094 13.7169C7.1667 13.7919 7.125 13.8937 7.125 13.9998V19.2C7.125 19.4122 7.04159 19.6156 6.89313 19.7657C6.74466 19.9157 6.5433 20 6.33333 20H0.791667C0.581704 20 0.38034 19.9157 0.231874 19.7657C0.0834077 19.6156 0 19.4122 0 19.2V9.59961C0.000194641 9.17533 0.167137 8.76849 0.464114 8.46857L8.38078 0.468276C8.67768 0.168433 9.08025 0 9.5 0C9.91975 0 10.3223 0.168433 10.6192 0.468276L18.5359 8.46857C18.8329 8.76849 18.9998 9.17533 19 9.59961Z" fill="white"/>
</svg>
