<svg width="15" height="20" viewBox="0 0 15 20" fill="none" xmlns="http://www.w3.org/2000/svg">
<path d="M6 1.16797L6.625 0.335938C6.78125 0.125 7.03125 0 7.29297 0C7.75 0 8.125 0.375 8.125 0.832031V1.69531C8.125 2.20703 8.33594 2.69922 8.70703 3.05078L12.0156 6.21094C13.9219 8.03125 15 10.5547 15 13.1914C15 16.9531 11.9531 20 8.19141 20H7.5C3.35937 20 0 16.6406 0 12.5V12.3516C0 10.4453 0.757813 8.61719 2.10547 7.26953L2.24219 7.13281C2.40625 6.96875 2.63281 6.875 2.86719 6.875C3.35547 6.875 3.75 7.26953 3.75 7.75781V11.25C3.75 12.6289 4.87109 13.75 6.25 13.75C7.62891 13.75 8.75 12.6289 8.75 11.25V11.0977C8.75 10.3945 8.46875 9.71875 7.97266 9.22266L6.46484 7.71484C5.52734 6.77734 5 5.5 5 4.17188C5 3.08984 5.35156 2.03125 6 1.16797Z" fill="white"/>
</svg>
