<svg width="24" height="24" viewBox="0 0 24 24" fill="none" xmlns="http://www.w3.org/2000/svg">
<path d="M10.5 3.16797L11.125 2.33594C11.2813 2.125 11.5313 2 11.793 2C12.25 2 12.625 2.375 12.625 2.83203V3.69531C12.625 4.20703 12.8359 4.69922 13.207 5.05078L16.5156 8.21094C18.4219 10.0312 19.5 12.5547 19.5 15.1914C19.5 18.9531 16.4531 22 12.6914 22H12C7.85937 22 4.5 18.6406 4.5 14.5V14.3516C4.5 12.4453 5.25781 10.6172 6.60547 9.26953L6.74219 9.13281C6.90625 8.96875 7.13281 8.875 7.36719 8.875C7.85547 8.875 8.25 9.26953 8.25 9.75781V13.25C8.25 14.6289 9.37109 15.75 10.75 15.75C12.1289 15.75 13.25 14.6289 13.25 13.25V13.0977C13.25 12.3945 12.9688 11.7188 12.4727 11.2227L10.9648 9.71484C10.0273 8.77734 9.5 7.5 9.5 6.17188C9.5 5.08984 9.85156 4.03125 10.5 3.16797Z" fill="#767676"/>
</svg>
