<svg width="67" height="47" viewBox="0 0 67 47" fill="none" xmlns="http://www.w3.org/2000/svg">
<path d="M4 6.59133C4 6.59133 7.06228 6.59133 12.651 6.5913C18.116 6.59128 12.1304 12.5071 9.56315 20.2764C6.99585 28.0456 7.0878 43 14.8711 43C20.2301 43 17.8569 10.4299 27.0182 15.7571C32.8015 19.1201 28.0431 36.1835 34.6994 36.9319C41.18 37.6605 38.7105 17.7421 43.7586 21.8505C46.9749 24.4679 46.2559 31.2195 48.888 34.4183C54.1472 40.8101 55.4974 27.7155 57.0796 27.7155C59.5549 27.7155 63 27.7155 63 27.7155" stroke="url(#paint0_linear_1273_2261)" stroke-width="6.42769" stroke-linecap="round"/>
<path d="M25.8175 0.03125C28.0289 0.031259 29.8214 1.81485 29.8214 4.01465C29.8214 6.21445 28.0289 7.99804 25.8175 7.99805C23.6061 7.99805 21.8136 6.21446 21.8136 4.01465C21.8136 1.81484 23.6061 0.03125 25.8175 0.03125Z" fill="#60CE38" stroke="#60CE38" stroke-width="0.0625505"/>
<path d="M42.8746 8.83655C44.5097 8.83678 45.8346 10.1554 45.8346 11.7819C45.8346 13.4083 44.5097 14.7269 42.8746 14.7272C41.2394 14.7272 39.9137 13.4084 39.9137 11.7819C39.9137 10.1553 41.2394 8.83655 42.8746 8.83655Z" fill="#60CE38" stroke="#60CE38" stroke-width="0.0602698"/>
<defs>
<linearGradient id="paint0_linear_1273_2261" x1="25.7933" y1="6.61684" x2="25.7933" y2="42.9746" gradientUnits="userSpaceOnUse">
<stop stop-color="#60CE38"/>
<stop offset="1" stop-color="#0FF2FF"/>
</linearGradient>
</defs>
</svg>
