<svg width="224" height="158" viewBox="0 0 224 158" fill="none" xmlns="http://www.w3.org/2000/svg">
<path d="M11.6632 22.6584C11.6632 22.6584 22.0788 22.6584 41.0872 22.6583C59.6753 22.6582 39.3169 42.8822 30.5849 69.4421C21.8529 96.0019 22.1656 147.125 48.6385 147.125C66.8658 147.125 58.7941 35.781 89.9537 53.9926C109.624 65.4893 93.4396 123.822 116.079 126.381C138.122 128.872 129.722 60.7786 146.892 74.8233C157.831 83.7714 155.386 106.852 164.338 117.788C182.226 139.639 186.819 94.8735 192.2 94.8735C200.619 94.8735 212.337 94.8735 212.337 94.8735" stroke="url(#paint0_linear_1208_1802)" stroke-width="21.6974" stroke-linecap="round"/>
<circle cx="85.8693" cy="13.8497" r="13.6189" fill="#60CE38" stroke="#60CE38" stroke-width="0.211146"/>
<circle cx="143.884" cy="40.4027" r="10.0707" fill="#60CE38" stroke="#60CE38" stroke-width="0.203448"/>
<defs>
<linearGradient id="paint0_linear_1208_1802" x1="85.7875" y1="22.7456" x2="85.7875" y2="147.038" gradientUnits="userSpaceOnUse">
<stop stop-color="#60CE38"/>
<stop offset="1" stop-color="#0FF2FF"/>
</linearGradient>
</defs>
</svg>
