<svg width="24" height="24" viewBox="0 0 24 24" fill="none" xmlns="http://www.w3.org/2000/svg">
<path fill-rule="evenodd" clip-rule="evenodd" d="M14.3808 0.6504C14.4852 0.8532 14.5116 1.1136 14.5632 1.6344C14.6616 2.6184 14.7108 3.1104 14.9172 3.3816C15.0458 3.54999 15.2167 3.68132 15.4125 3.76226C15.6083 3.8432 15.822 3.87085 16.032 3.8424C16.368 3.798 16.752 3.4848 17.5176 2.8584C17.922 2.526 18.1248 2.3604 18.342 2.2908C18.6186 2.2024 18.9179 2.21733 19.1844 2.3328C19.3944 2.424 19.5804 2.6088 19.9488 2.9784L21.0216 4.0512C21.3912 4.4208 21.576 4.6056 21.6672 4.8156C21.7827 5.08207 21.7976 5.38137 21.7092 5.658C21.6396 5.8752 21.474 6.078 21.1428 6.4824C20.5152 7.2492 20.202 7.632 20.1564 7.9692C20.1283 8.17908 20.1563 8.39265 20.2374 8.58823C20.3185 8.78382 20.45 8.95445 20.6184 9.0828C20.8884 9.2892 21.3816 9.3384 22.3668 9.4368C22.8864 9.4884 23.1468 9.5148 23.3508 9.6192C23.6081 9.75264 23.8085 9.97472 23.9148 10.2444C24 10.4568 24 10.7184 24 11.2416V12.7584C24 13.2816 24 13.5432 23.916 13.7544C23.8093 14.0249 23.6081 14.2475 23.3496 14.3808C23.1468 14.4852 22.8864 14.5116 22.3656 14.5632C21.3816 14.6616 20.8896 14.7108 20.6184 14.9172C20.45 15.0458 20.3187 15.2167 20.2377 15.4125C20.1568 15.6083 20.1292 15.822 20.1576 16.032C20.2032 16.368 20.5164 16.752 21.1428 17.5176C21.474 17.922 21.6396 18.1236 21.7092 18.342C21.7976 18.6186 21.7827 18.9179 21.6672 19.1844C21.576 19.3944 21.3912 19.5792 21.0216 19.9488L19.9488 21.0204C19.5792 21.3912 19.3944 21.576 19.1844 21.666C18.9179 21.7815 18.6186 21.7964 18.342 21.708C18.1248 21.6384 17.922 21.4728 17.5176 21.1416C16.7508 20.5152 16.368 20.202 16.032 20.1576C15.822 20.1292 15.6083 20.1568 15.4125 20.2377C15.2167 20.3187 15.0458 20.45 14.9172 20.6184C14.7108 20.8884 14.6616 21.3804 14.5632 22.3656C14.5116 22.8864 14.4852 23.1468 14.3808 23.3496C14.2478 23.6078 14.0257 23.8091 13.7556 23.916C13.5432 24 13.2816 24 12.7584 24H11.2416C10.7184 24 10.4568 24 10.2456 23.916C9.97507 23.8093 9.75247 23.6081 9.6192 23.3496C9.5148 23.1468 9.4884 22.8864 9.4368 22.3656C9.3384 21.3816 9.2892 20.8896 9.0828 20.6184C8.95431 20.4502 8.78362 20.319 8.58804 20.2381C8.39247 20.1571 8.17897 20.1294 7.9692 20.1576C7.632 20.202 7.2492 20.5152 6.4824 21.1416C6.078 21.474 5.8752 21.6396 5.658 21.7092C5.38137 21.7976 5.08207 21.7827 4.8156 21.6672C4.6056 21.576 4.4196 21.3912 4.0512 21.0216L2.9784 19.9488C2.6088 19.5792 2.424 19.3944 2.3328 19.1844C2.21733 18.9179 2.2024 18.6186 2.2908 18.342C2.3604 18.1248 2.526 17.922 2.8572 17.5176C3.4848 16.7508 3.798 16.368 3.8424 16.0308C3.87063 15.821 3.84287 15.6075 3.76194 15.412C3.68101 15.2164 3.54979 15.0457 3.3816 14.9172C3.1116 14.7108 2.6184 14.6616 1.6332 14.5632C1.1136 14.5116 0.8532 14.4852 0.6492 14.3808C0.391857 14.2474 0.191515 14.0253 0.0852001 13.7556C1.16229e-07 13.5432 0 13.2816 0 12.7584V11.2416C0 10.7184 -8.04663e-08 10.4568 0.0839999 10.2456C0.190664 9.97507 0.391938 9.75247 0.6504 9.6192C0.8532 9.5148 1.1136 9.4884 1.6344 9.4368C2.6184 9.3384 3.1116 9.2892 3.3816 9.0828C3.55001 8.95445 3.68146 8.78382 3.7626 8.58823C3.84375 8.39265 3.87169 8.17908 3.8436 7.9692C3.798 7.632 3.4836 7.2492 2.8572 6.4812C2.526 6.0768 2.3604 5.8752 2.2908 5.6568C2.2024 5.38017 2.21733 5.08087 2.3328 4.8144C2.424 4.6056 2.6088 4.4196 2.9784 4.05L4.0512 2.9784C4.4208 2.6088 4.6056 2.4228 4.8156 2.3328C5.08207 2.21733 5.38137 2.2024 5.658 2.2908C5.8752 2.3604 6.078 2.526 6.4824 2.8572C7.2492 3.4836 7.632 3.7968 7.968 3.8424C8.17826 3.87093 8.39232 3.84321 8.58836 3.76205C8.78441 3.68089 8.95543 3.5492 9.084 3.3804C9.288 3.1104 9.3384 2.6184 9.4368 1.6332C9.4884 1.1136 9.5148 0.8532 9.6192 0.6492C9.75241 0.391406 9.97452 0.190612 10.2444 0.0839999C10.4568 -8.04663e-08 10.7184 0 11.2416 0H12.7584C13.2816 0 13.5432 -8.04663e-08 13.7544 0.0839999C14.0249 0.190664 14.2475 0.391938 14.3808 0.6504ZM12 16.8C13.273 16.8 14.4939 16.2943 15.3941 15.3941C16.2943 14.4939 16.8 13.273 16.8 12C16.8 10.727 16.2943 9.50606 15.3941 8.60589C14.4939 7.70571 13.273 7.2 12 7.2C10.727 7.2 9.50606 7.70571 8.60589 8.60589C7.70571 9.50606 7.2 10.727 7.2 12C7.2 13.273 7.70571 14.4939 8.60589 15.3941C9.50606 16.2943 10.727 16.8 12 16.8Z" fill="#111111"/>
</svg>
