<svg width="24" height="25" viewBox="0 0 24 25" fill="none" xmlns="http://www.w3.org/2000/svg">
<path d="M20.083 10.9998L21.285 11.7208C21.3591 11.7652 21.4205 11.8281 21.4631 11.9032C21.5058 11.9784 21.5282 12.0634 21.5282 12.1498C21.5282 12.2362 21.5058 12.3212 21.4631 12.3964C21.4205 12.4716 21.3591 12.5344 21.285 12.5788L12 18.1488L2.71498 12.5788C2.64082 12.5344 2.57944 12.4716 2.53682 12.3964C2.4942 12.3212 2.4718 12.2362 2.4718 12.1498C2.4718 12.0634 2.4942 11.9784 2.53682 11.9032C2.57944 11.8281 2.64082 11.7652 2.71498 11.7208L3.91698 10.9998L12 15.8498L20.083 10.9998ZM20.083 15.6998L21.285 16.4208C21.3591 16.4652 21.4205 16.5281 21.4631 16.6032C21.5058 16.6784 21.5282 16.7634 21.5282 16.8498C21.5282 16.9362 21.5058 17.0212 21.4631 17.0964C21.4205 17.1716 21.3591 17.2344 21.285 17.2788L12.515 22.5408C12.3594 22.6342 12.1814 22.6836 12 22.6836C11.8185 22.6836 11.6405 22.6342 11.485 22.5408L2.71498 17.2788C2.64082 17.2344 2.57944 17.1716 2.53682 17.0964C2.4942 17.0212 2.4718 16.9362 2.4718 16.8498C2.4718 16.7634 2.4942 16.6784 2.53682 16.6032C2.57944 16.5281 2.64082 16.4652 2.71498 16.4208L3.91698 15.6998L12 20.5498L20.083 15.6998ZM12.514 1.8088L21.285 7.0708C21.3591 7.1152 21.4205 7.17805 21.4631 7.25324C21.5058 7.32843 21.5282 7.41338 21.5282 7.4998C21.5282 7.58623 21.5058 7.67118 21.4631 7.74637C21.4205 7.82155 21.3591 7.88441 21.285 7.9288L12 13.4988L2.71498 7.9298C2.64082 7.88541 2.57944 7.82255 2.53682 7.74737C2.4942 7.67218 2.4718 7.58723 2.4718 7.5008C2.4718 7.41438 2.4942 7.32943 2.53682 7.25424C2.57944 7.17905 2.64082 7.1162 2.71498 7.0718L11.485 1.8098C11.6405 1.71636 11.8185 1.66699 12 1.66699C12.1814 1.66699 12.3594 1.71636 12.515 1.8098" fill="#A1FAFF"/>
</svg>
