<svg width="24" height="24" viewBox="0 0 24 24" fill="none" xmlns="http://www.w3.org/2000/svg">
<path d="M17.8974 4.03457V2.74074C17.8974 2.54428 17.8164 2.35587 17.6721 2.21696C17.5279 2.07804 17.3322 2 17.1282 2C16.9242 2 16.7285 2.07804 16.5843 2.21696C16.44 2.35587 16.359 2.54428 16.359 2.74074V3.97531H7.64103V2.74074C7.64103 2.54428 7.55998 2.35587 7.41572 2.21696C7.27146 2.07804 7.07581 2 6.8718 2C6.66778 2 6.47213 2.07804 6.32787 2.21696C6.18361 2.35587 6.10256 2.54428 6.10256 2.74074V4.03457C4.95931 4.21263 3.91902 4.77625 3.1675 5.62477C2.41598 6.4733 2.00217 7.55145 2 8.66667V17.3086C2 17.9247 2.12601 18.5348 2.37084 19.1039C2.61567 19.6731 2.97453 20.1903 3.42692 20.6259C4.34055 21.5057 5.57971 22 6.8718 22H17.1282C17.768 22 18.4015 21.8787 18.9926 21.6429C19.5836 21.4071 20.1207 21.0616 20.5731 20.6259C21.0255 20.1903 21.3843 19.6731 21.6292 19.1039C21.874 18.5348 22 17.9247 22 17.3086V8.66667C21.9978 7.55145 21.584 6.4733 20.8325 5.62477C20.081 4.77625 19.0407 4.21263 17.8974 4.03457ZM20.4615 9.90123H3.53846V8.66667C3.53947 7.94578 3.79322 7.24634 4.25861 6.68167C4.72399 6.11701 5.37373 5.7202 6.10256 5.55556V6.69136C6.10256 6.88781 6.18361 7.07623 6.32787 7.21514C6.47213 7.35406 6.66778 7.4321 6.8718 7.4321C7.07581 7.4321 7.27146 7.35406 7.41572 7.21514C7.55998 7.07623 7.64103 6.88781 7.64103 6.69136V5.45679H16.359V6.69136C16.359 6.88781 16.44 7.07623 16.5843 7.21514C16.7285 7.35406 16.9242 7.4321 17.1282 7.4321C17.3322 7.4321 17.5279 7.35406 17.6721 7.21514C17.8164 7.07623 17.8974 6.88781 17.8974 6.69136V5.55556C18.6263 5.7202 19.276 6.11701 19.7414 6.68167C20.2068 7.24634 20.4605 7.94578 20.4615 8.66667V9.90123Z" fill="white"/>
</svg>
