<svg width="26" height="26" viewBox="0 0 26 26" fill="none" xmlns="http://www.w3.org/2000/svg">
<path d="M20.3718 3.04321V1.42593C20.3718 1.18036 20.2705 0.944842 20.0902 0.771197C19.9098 0.597553 19.6653 0.5 19.4103 0.5C19.1552 0.5 18.9107 0.597553 18.7303 0.771197C18.55 0.944842 18.4487 1.18036 18.4487 1.42593V2.96914H7.55128V1.42593C7.55128 1.18036 7.44998 0.944842 7.26965 0.771197C7.08933 0.597553 6.84476 0.5 6.58974 0.5C6.33473 0.5 6.09016 0.597553 5.90983 0.771197C5.72951 0.944842 5.62821 1.18036 5.62821 1.42593V3.04321C4.19914 3.26578 2.89877 3.97031 1.95937 5.03097C1.01997 6.09162 0.502718 7.43931 0.5 8.83333V19.6358C0.5 20.4059 0.657516 21.1685 0.963554 21.8799C1.26959 22.5914 1.71816 23.2379 2.28364 23.7824C3.42569 24.8822 4.97464 25.5 6.58974 25.5H19.4103C20.21 25.5 21.0019 25.3483 21.7407 25.0536C22.4795 24.7589 23.1509 24.327 23.7164 23.7824C24.2818 23.2379 24.7304 22.5914 25.0364 21.8799C25.3425 21.1685 25.5 20.4059 25.5 19.6358V8.83333C25.4973 7.43931 24.98 6.09162 24.0406 5.03097C23.1012 3.97031 21.8009 3.26578 20.3718 3.04321ZM23.5769 10.3765H2.42308V8.83333C2.42434 7.93222 2.74153 7.05792 3.32326 6.35209C3.90499 5.64626 4.71717 5.15025 5.62821 4.94444V6.3642C5.62821 6.60977 5.72951 6.84528 5.90983 7.01893C6.09016 7.19257 6.33473 7.29012 6.58974 7.29012C6.84476 7.29012 7.08933 7.19257 7.26965 7.01893C7.44998 6.84528 7.55128 6.60977 7.55128 6.3642V4.82099H18.4487V6.3642C18.4487 6.60977 18.55 6.84528 18.7303 7.01893C18.9107 7.19257 19.1552 7.29012 19.4103 7.29012C19.6653 7.29012 19.9098 7.19257 20.0902 7.01893C20.2705 6.84528 20.3718 6.60977 20.3718 6.3642V4.94444C21.2828 5.15025 22.095 5.64626 22.6767 6.35209C23.2585 7.05792 23.5757 7.93222 23.5769 8.83333V10.3765Z" fill="#6A7BFF"/>
</svg>
