<svg width="60" height="14" viewBox="0 0 60 14" fill="none" xmlns="http://www.w3.org/2000/svg">
<path d="M7.90625 7.76562L6.96875 9.86719C6.80729 10.2214 6.67708 10.4609 6.57812 10.5859C6.47917 10.7057 6.36979 10.7656 6.25 10.7656C6.13542 10.7656 6.03385 10.7161 5.94531 10.6172C5.88802 10.5547 5.75521 10.3255 5.54688 9.92969C5.34375 9.53385 5.17448 9.18229 5.03906 8.875L4.00781 6.55469C3.86719 6.23177 3.71875 6.07031 3.5625 6.07031C3.39583 6.07031 3.30469 6.20833 3.28906 6.48438C3.2526 7.09896 3.23438 7.66667 3.23438 8.1875C3.23438 8.72917 3.26042 9.09635 3.3125 9.28906C3.34896 9.40365 3.39583 9.48698 3.45312 9.53906C3.51562 9.59115 3.67969 9.6849 3.94531 9.82031C4.11719 9.90885 4.20312 10.0625 4.20312 10.2812C4.20312 10.8646 3.45573 11.1562 1.96094 11.1562C0.700521 11.1562 0.0703125 10.8724 0.0703125 10.3047C0.0703125 10.1589 0.101562 10.0547 0.164062 9.99219C0.231771 9.92448 0.401042 9.82552 0.671875 9.69531C0.84375 9.61719 0.958333 9.51042 1.01562 9.375C1.07812 9.23958 1.13021 8.97656 1.17188 8.58594C1.21875 8.16927 1.26302 7.48698 1.30469 6.53906C1.34635 5.58594 1.36719 4.77083 1.36719 4.09375C1.36719 3.24479 1.30208 2.66927 1.17188 2.36719C1.125 2.26302 1.07031 2.1849 1.00781 2.13281C0.950521 2.08073 0.838542 2.01302 0.671875 1.92969C0.302083 1.7526 0.117188 1.52344 0.117188 1.24219C0.117188 1.0599 0.184896 0.893229 0.320312 0.742188C0.460938 0.591146 0.645833 0.484375 0.875 0.421875C1.10417 0.354167 1.40885 0.296875 1.78906 0.25C2.17448 0.197917 2.5 0.171875 2.76562 0.171875C3.43229 0.171875 3.90365 0.226562 4.17969 0.335938C4.3151 0.388021 4.42188 0.458333 4.5 0.546875C4.57812 0.635417 4.6901 0.817708 4.83594 1.09375L6.46094 4.08594C6.63802 4.41406 6.76042 4.61458 6.82812 4.6875C6.89583 4.76042 6.98958 4.79688 7.10938 4.79688C7.21354 4.79688 7.30469 4.75781 7.38281 4.67969C7.46615 4.60156 7.5625 4.45573 7.67188 4.24219L8.77344 2.09375C8.90885 1.81771 8.9974 1.63802 9.03906 1.55469C9.29427 1.03385 9.54688 0.6875 9.79688 0.515625C10.1146 0.291667 10.6927 0.179688 11.5312 0.179688C13.0052 0.179688 13.7422 0.515625 13.7422 1.1875C13.7422 1.33854 13.7135 1.46094 13.6562 1.55469C13.599 1.64323 13.4818 1.7526 13.3047 1.88281C13.0651 2.0651 12.9141 2.32812 12.8516 2.67188C12.7318 3.39062 12.6719 4.26562 12.6719 5.29688C12.6719 6.625 12.7344 7.78906 12.8594 8.78906C12.8906 9.03385 12.9375 9.20052 13 9.28906C13.0677 9.3776 13.237 9.51042 13.5078 9.6875C13.6953 9.8125 13.7891 9.97917 13.7891 10.1875C13.7891 10.5521 13.5469 10.8099 13.0625 10.9609C12.8125 11.0443 12.5495 11.099 12.2734 11.125C11.9974 11.151 11.5729 11.1641 11 11.1641C10.1198 11.1641 9.46354 11.1016 9.03125 10.9766C8.55208 10.8359 8.3125 10.5964 8.3125 10.2578C8.3125 10.1328 8.34375 10.0312 8.40625 9.95312C8.46875 9.86979 8.63021 9.72135 8.89062 9.50781C9.02604 9.39844 9.11719 9.1875 9.16406 8.875C9.21615 8.5625 9.24219 8.03125 9.24219 7.28125C9.24219 6.86458 9.22135 6.59115 9.17969 6.46094C9.14323 6.33073 9.0625 6.26562 8.9375 6.26562C8.79167 6.26562 8.65104 6.36719 8.51562 6.57031C8.38021 6.76823 8.17708 7.16667 7.90625 7.76562ZM21.7422 7.0625L20.7109 9.89844C20.4557 10.6016 20.1979 11.1745 19.9375 11.6172C19.6823 12.0651 19.3906 12.4453 19.0625 12.7578C18.3854 13.4036 17.5703 13.7266 16.6172 13.7266C15.8464 13.7266 15.2214 13.5234 14.7422 13.1172C14.3724 12.8047 14.1875 12.4062 14.1875 11.9219C14.1875 11.5208 14.3151 11.1849 14.5703 10.9141C14.8307 10.638 15.1484 10.5 15.5234 10.5C15.8984 10.5 16.2005 10.625 16.4297 10.875C16.5391 10.9896 16.612 11.0911 16.6484 11.1797C16.6849 11.2682 16.7396 11.4635 16.8125 11.7656C16.8698 11.9948 17 12.1094 17.2031 12.1094C17.3646 12.1094 17.5 12.0391 17.6094 11.8984C17.7188 11.7578 17.7734 11.5833 17.7734 11.375C17.7734 11.1302 17.638 10.7214 17.3672 10.1484L15.4844 6.14062C15.2865 5.72396 15.138 5.46354 15.0391 5.35938C14.9401 5.25521 14.7214 5.1276 14.3828 4.97656C14.2786 4.9349 14.1875 4.85417 14.1094 4.73438C14.0365 4.60938 14 4.48958 14 4.375C14 3.91146 14.4609 3.59635 15.3828 3.42969C15.9974 3.32031 16.6979 3.26562 17.4844 3.26562C18.0365 3.26562 18.4714 3.32292 18.7891 3.4375C19.2161 3.58854 19.4297 3.84635 19.4297 4.21094C19.4297 4.34115 19.3698 4.49479 19.25 4.67188C19.1354 4.83854 19.0781 4.98698 19.0781 5.11719C19.0781 5.24219 19.1042 5.3724 19.1562 5.50781C19.2135 5.64323 19.3307 5.8724 19.5078 6.19531C19.7057 6.5599 19.8802 6.74219 20.0312 6.74219C20.1927 6.74219 20.3594 6.58333 20.5312 6.26562C20.7031 5.94271 20.7891 5.63281 20.7891 5.33594C20.7891 5.09635 20.724 4.90104 20.5938 4.75C20.3958 4.51562 20.2969 4.3151 20.2969 4.14844C20.2969 3.88281 20.474 3.67188 20.8281 3.51562C21.1823 3.35417 21.6562 3.27344 22.25 3.27344C23.3542 3.27344 23.9062 3.53906 23.9062 4.07031C23.9062 4.26302 23.849 4.41927 23.7344 4.53906C23.625 4.65365 23.4219 4.76302 23.125 4.86719C22.875 4.96094 22.6771 5.11719 22.5312 5.33594C22.3021 5.6849 22.0391 6.26042 21.7422 7.0625ZM33.3359 0.960938V8.09375C33.3359 8.5 33.3516 8.76042 33.3828 8.875C33.4193 8.98958 33.5156 9.10156 33.6719 9.21094C33.8594 9.34115 33.9844 9.45573 34.0469 9.55469C34.1146 9.65365 34.1484 9.77344 34.1484 9.91406C34.1484 10.3307 33.7292 10.6484 32.8906 10.8672C32.1354 11.0599 31.3802 11.1562 30.625 11.1562C30.4583 11.1562 30.349 11.1302 30.2969 11.0781C30.25 11.0312 30.2188 10.9141 30.2031 10.7266C30.1771 10.4609 30.0833 10.3281 29.9219 10.3281C29.8333 10.3281 29.6953 10.4062 29.5078 10.5625C28.9766 10.9948 28.3854 11.2109 27.7344 11.2109C26.9271 11.2109 26.2005 10.9115 25.5547 10.3125C25.1745 9.95312 24.8672 9.53906 24.6328 9.07031C24.3203 8.46094 24.1641 7.84375 24.1641 7.21875C24.1641 6.48438 24.3672 5.77604 24.7734 5.09375C25.1484 4.46354 25.6589 3.97917 26.3047 3.64062C26.8464 3.35938 27.3802 3.21875 27.9062 3.21875C28.5104 3.21875 29.0521 3.35417 29.5312 3.625C29.6094 3.66667 29.6719 3.6875 29.7188 3.6875C29.8854 3.6875 29.9688 3.46354 29.9688 3.01562C29.9688 2.82292 29.9219 2.67708 29.8281 2.57812C29.7396 2.47396 29.5781 2.38542 29.3438 2.3125C29.0156 2.20833 28.8516 2.02604 28.8516 1.76562C28.8516 1.38542 29.2292 1.08854 29.9844 0.875C31.3177 0.505208 32.2109 0.320312 32.6641 0.320312C33.112 0.320312 33.3359 0.533854 33.3359 0.960938ZM29.0938 4.89062C28.7552 4.89062 28.487 5.07031 28.2891 5.42969C28.0234 5.90885 27.8906 6.53906 27.8906 7.32031C27.8906 8.02865 28.0182 8.5625 28.2734 8.92188C28.4557 9.18229 28.7031 9.3125 29.0156 9.3125C29.3542 9.3125 29.599 9.11719 29.75 8.72656C29.9062 8.33073 29.9844 7.69531 29.9844 6.82031C29.9844 6.01823 29.8932 5.48438 29.7109 5.21875C29.5703 5.01042 29.3646 4.90104 29.0938 4.89062ZM39.0703 3.21094C39.9766 3.21094 40.7448 3.4401 41.375 3.89844C41.7083 4.14323 41.9401 4.42448 42.0703 4.74219C42.2057 5.05469 42.2734 5.48698 42.2734 6.03906L42.2578 7.20312C42.2578 8.01042 42.3151 8.53385 42.4297 8.77344C42.487 8.88802 42.5417 8.96094 42.5938 8.99219C42.6458 9.02344 42.7552 9.05208 42.9219 9.07812C43.0885 9.10417 43.1719 9.21354 43.1719 9.40625C43.1719 9.65625 43.0703 9.91667 42.8672 10.1875C42.6693 10.4583 42.4115 10.6849 42.0938 10.8672C41.7031 11.0964 41.2943 11.2109 40.8672 11.2109C40.3203 11.2109 39.888 11.0234 39.5703 10.6484C39.4609 10.513 39.3594 10.4453 39.2656 10.4453C39.1615 10.4453 39.0234 10.5104 38.8516 10.6406C38.3307 11.0208 37.7396 11.2109 37.0781 11.2109C36.3958 11.2109 35.8438 11.0651 35.4219 10.7734C35.1458 10.5807 34.9271 10.3307 34.7656 10.0234C34.6042 9.71094 34.5234 9.38542 34.5234 9.04688C34.5234 8.50521 34.7422 8.02604 35.1797 7.60938C35.862 6.95312 36.8828 6.6224 38.2422 6.61719C38.5443 6.61719 38.7344 6.58854 38.8125 6.53125C38.8906 6.46875 38.9297 6.32812 38.9297 6.10938C38.9297 5.55729 38.8724 5.15885 38.7578 4.91406C38.6432 4.66406 38.4557 4.53906 38.1953 4.53906C38.0391 4.53906 37.8984 4.58594 37.7734 4.67969C37.6536 4.77344 37.5026 4.94531 37.3203 5.19531C36.8568 5.85677 36.3724 6.1875 35.8672 6.1875C35.612 6.1875 35.4036 6.11198 35.2422 5.96094C35.0807 5.8099 35 5.61198 35 5.36719C35 5.11719 35.099 4.86719 35.2969 4.61719C35.5 4.36719 35.7734 4.14844 36.1172 3.96094C37.0599 3.46094 38.0443 3.21094 39.0703 3.21094ZM38.5469 7.73438C38.3177 7.73438 38.1172 7.82812 37.9453 8.01562C37.7786 8.20312 37.6953 8.42708 37.6953 8.6875C37.6953 8.9375 37.7552 9.14062 37.875 9.29688C37.9948 9.44792 38.1536 9.52344 38.3516 9.52344C38.7682 9.52344 38.9766 9.17188 38.9766 8.46875C38.9766 8.18229 38.9453 7.98958 38.8828 7.89062C38.8255 7.79167 38.7135 7.73958 38.5469 7.73438ZM50.6797 7.0625L49.6484 9.89844C49.3932 10.6016 49.1354 11.1745 48.875 11.6172C48.6198 12.0651 48.3281 12.4453 48 12.7578C47.3229 13.4036 46.5078 13.7266 45.5547 13.7266C44.7839 13.7266 44.1589 13.5234 43.6797 13.1172C43.3099 12.8047 43.125 12.4062 43.125 11.9219C43.125 11.5208 43.2526 11.1849 43.5078 10.9141C43.7682 10.638 44.0859 10.5 44.4609 10.5C44.8359 10.5 45.138 10.625 45.3672 10.875C45.4766 10.9896 45.5495 11.0911 45.5859 11.1797C45.6224 11.2682 45.6771 11.4635 45.75 11.7656C45.8073 11.9948 45.9375 12.1094 46.1406 12.1094C46.3021 12.1094 46.4375 12.0391 46.5469 11.8984C46.6562 11.7578 46.7109 11.5833 46.7109 11.375C46.7109 11.1302 46.5755 10.7214 46.3047 10.1484L44.4219 6.14062C44.224 5.72396 44.0755 5.46354 43.9766 5.35938C43.8776 5.25521 43.6589 5.1276 43.3203 4.97656C43.2161 4.9349 43.125 4.85417 43.0469 4.73438C42.974 4.60938 42.9375 4.48958 42.9375 4.375C42.9375 3.91146 43.3984 3.59635 44.3203 3.42969C44.9349 3.32031 45.6354 3.26562 46.4219 3.26562C46.974 3.26562 47.4089 3.32292 47.7266 3.4375C48.1536 3.58854 48.3672 3.84635 48.3672 4.21094C48.3672 4.34115 48.3073 4.49479 48.1875 4.67188C48.0729 4.83854 48.0156 4.98698 48.0156 5.11719C48.0156 5.24219 48.0417 5.3724 48.0938 5.50781C48.151 5.64323 48.2682 5.8724 48.4453 6.19531C48.6432 6.5599 48.8177 6.74219 48.9688 6.74219C49.1302 6.74219 49.2969 6.58333 49.4688 6.26562C49.6406 5.94271 49.7266 5.63281 49.7266 5.33594C49.7266 5.09635 49.6615 4.90104 49.5312 4.75C49.3333 4.51562 49.2344 4.3151 49.2344 4.14844C49.2344 3.88281 49.4115 3.67188 49.7656 3.51562C50.1198 3.35417 50.5938 3.27344 51.1875 3.27344C52.2917 3.27344 52.8438 3.53906 52.8438 4.07031C52.8438 4.26302 52.7865 4.41927 52.6719 4.53906C52.5625 4.65365 52.3594 4.76302 52.0625 4.86719C51.8125 4.96094 51.6146 5.11719 51.4688 5.33594C51.2396 5.6849 50.9766 6.26042 50.6797 7.0625ZM55.9375 3.21875C56.1979 3.21875 56.6224 3.27604 57.2109 3.39062C57.3307 3.41146 57.4297 3.42188 57.5078 3.42188C57.5964 3.42188 57.7682 3.375 58.0234 3.28125C58.1432 3.23438 58.2448 3.21094 58.3281 3.21094C58.5677 3.21094 58.8099 3.36458 59.0547 3.67188C59.2526 3.91667 59.4141 4.1849 59.5391 4.47656C59.6641 4.76823 59.7266 5.02083 59.7266 5.23438C59.7266 5.44271 59.6536 5.61719 59.5078 5.75781C59.362 5.89323 59.1797 5.96094 58.9609 5.96094C58.7786 5.96094 58.6146 5.91667 58.4688 5.82812C58.3281 5.73958 58.099 5.54427 57.7812 5.24219C57.4479 4.91927 57.1719 4.75781 56.9531 4.75781C56.8073 4.75781 56.6797 4.8125 56.5703 4.92188C56.4661 5.02604 56.4141 5.15104 56.4141 5.29688C56.4141 5.55208 56.6589 5.79167 57.1484 6.01562C58.0286 6.41146 58.7031 6.84375 59.1719 7.3125C59.5677 7.70833 59.7656 8.19271 59.7656 8.76562C59.7656 9.48958 59.4479 10.0938 58.8125 10.5781C58.2656 11 57.5964 11.2109 56.8047 11.2109C56.6016 11.2109 56.2318 11.1771 55.6953 11.1094C55.1901 11.0521 54.9062 11.0234 54.8438 11.0234C54.776 11.0234 54.6979 11.0312 54.6094 11.0469C54.4583 11.0677 54.349 11.0781 54.2812 11.0781C54.0365 11.0781 53.8438 11.0156 53.7031 10.8906C53.4896 10.6979 53.2917 10.3958 53.1094 9.98438C52.9271 9.56771 52.8359 9.21094 52.8359 8.91406C52.8359 8.4349 53.0234 8.19531 53.3984 8.19531C53.5443 8.19531 53.6771 8.24479 53.7969 8.34375C53.9219 8.4375 54.1797 8.69271 54.5703 9.10938C54.7839 9.33854 54.9609 9.4974 55.1016 9.58594C55.2422 9.66927 55.3932 9.71094 55.5547 9.71094C55.7266 9.71094 55.8646 9.66667 55.9688 9.57812C56.0729 9.48438 56.125 9.36198 56.125 9.21094C56.125 8.97656 55.9245 8.76302 55.5234 8.57031C54.6849 8.15885 54.0781 7.73438 53.7031 7.29688C53.3333 6.85938 53.1484 6.35417 53.1484 5.78125C53.1484 5.16146 53.3385 4.6276 53.7188 4.17969C54.2604 3.53906 55 3.21875 55.9375 3.21875Z" fill="white"/>
</svg>
